<svg version="1.1" id="Layer_1" xmlns="http://www.w3.org/2000/svg" xmlns:xlink="http://www.w3.org/1999/xlink" x="0px" y="0px"
	 width="100%" viewBox="0 0 736 736" enable-background="new 0 0 736 736" xml:space="preserve">
<path fill="#000000" opacity="1.000000" stroke="none" 
	d="
M424.922791,283.000031 
	C424.941986,275.669739 425.136475,268.834167 424.929565,262.010712 
	C424.731720,255.486923 430.501251,254.898407 434.134521,252.167694 
	C437.154877,249.897598 439.499939,251.999756 441.772369,253.589157 
	C458.556702,265.328613 475.262207,277.181366 492.100616,288.842346 
	C495.144806,290.950500 496.502777,293.250061 496.488068,297.044556 
	C496.382416,324.326202 496.183472,351.613373 496.607239,378.889557 
	C497.031433,406.193146 496.148285,433.481232 496.309845,460.777496 
	C496.319458,462.404510 496.684906,464.129822 495.083344,466.316498 
	C473.610413,459.645264 458.186981,442.523499 438.567017,432.362488 
	C440.137604,437.950287 445.968506,439.008759 449.536377,442.442902 
	C453.326172,446.090546 458.396179,448.180084 461.803467,452.581207 
	C453.758759,451.245422 445.634308,450.281250 439.091125,443.725677 
	C437.121338,447.129486 434.482056,446.658508 431.336243,446.194794 
	C421.326782,444.719330 411.494751,442.073212 401.263489,441.954376 
	C393.941406,441.869324 392.869019,440.575012 392.871246,433.359802 
	C392.886597,383.547577 392.930969,333.735352 393.021973,283.923187 
	C393.035645,276.458923 394.229736,274.801331 400.130066,273.541077 
	C400.130066,293.561279 400.130066,313.468292 400.130066,334.759003 
	C402.143463,332.167938 401.643799,330.500427 401.646729,329.025543 
	C401.680420,312.198700 401.671600,295.371735 401.644745,278.544830 
	C401.631653,270.356140 403.098999,268.434753 412.565643,265.473602 
	C412.565643,278.186188 412.565643,290.655304 412.565643,303.124451 
	C415.099854,301.737610 414.653625,299.869415 414.661407,298.187469 
	C414.707733,288.191498 414.822388,278.191803 414.598083,268.200439 
	C414.490448,263.406158 416.719910,261.268921 422.359558,260.307159 
	C422.359558,294.922974 422.359558,329.103271 422.359558,363.666901 
	C426.404022,362.582733 425.757660,360.236603 425.648071,358.439514 
	C424.125275,333.470276 425.372955,308.476959 424.922791,283.000031 
M456.781525,383.685944 
	C467.026703,390.804443 477.271912,397.922943 487.517090,405.041443 
	C487.787201,404.622314 488.057343,404.203156 488.327484,403.783997 
	C485.817688,399.602325 442.481995,368.637360 437.568909,368.403900 
	C442.249298,375.157654 450.050659,378.237701 456.781525,383.685944 
M479.198059,408.321136 
	C465.782196,398.817810 452.366333,389.314514 438.163025,379.253387 
	C438.934845,384.531403 481.535126,415.522858 488.897522,417.058563 
	C486.962769,412.570129 482.646332,411.405884 479.198059,408.321136 
M476.933929,419.606567 
	C464.070404,410.638733 451.668915,400.978668 437.377838,391.983398 
	C438.930756,397.366241 483.434631,429.133453 488.923279,429.664337 
	C486.191437,424.810944 481.230591,423.133240 476.933929,419.606567 
M478.360779,382.165497 
	C465.299591,372.913971 452.238403,363.662476 439.169037,354.405212 
	C437.666504,356.436798 438.283539,357.698151 439.377563,358.497345 
	C455.165955,370.030731 471.217407,381.175140 487.904205,391.407227 
	C486.577942,386.577209 481.970795,385.434937 478.360779,382.165497 
M485.761688,438.637878 
	C470.044922,427.495300 454.328125,416.352722 438.611328,405.210144 
	C439.124390,409.986084 481.810486,441.054688 488.244781,442.680786 
	C488.755524,440.832397 487.274200,440.076202 485.761688,438.637878 
M440.369537,346.345184 
	C456.053131,357.544708 471.695923,368.805298 488.100281,378.926025 
	C486.425995,374.431702 443.055420,343.227142 438.180542,342.318420 
	C437.227783,344.222443 438.764618,344.976898 440.369537,346.345184 
M465.186890,334.331482 
	C456.427307,328.197296 447.667694,322.063080 438.908112,315.928894 
	C438.451904,316.516602 437.995697,317.104309 437.539490,317.692017 
	C444.461975,325.113464 453.710632,329.752258 461.786530,335.754242 
	C470.194305,342.002838 478.954987,347.776611 487.561340,353.758026 
	C487.974121,353.191040 488.386871,352.624084 488.799622,352.057129 
	C481.979523,345.230835 473.198822,340.825592 465.186890,334.331482 
M479.436157,447.105347 
	C466.023834,437.560974 452.611511,428.016632 438.349945,417.867920 
	C439.167023,422.590210 482.387604,454.286957 488.899506,455.946167 
	C487.386841,451.207458 483.008148,450.055267 479.436157,447.105347 
M477.332458,330.198395 
	C464.641449,321.236938 451.950470,312.275482 438.608124,302.854095 
	C439.018158,307.531677 482.326660,338.973755 488.929596,340.123810 
	C485.921448,335.554962 481.571533,333.466705 477.332458,330.198395 
M450.912628,302.565002 
	C463.049255,310.894196 474.546783,320.208557 487.685059,326.993713 
	C485.553009,322.814331 443.588593,292.758636 438.225250,291.774780 
	C440.837830,296.756531 446.160034,298.832062 450.912628,302.565002 
M471.050598,351.481506 
	C460.468872,344.015594 449.887146,336.549652 438.343140,328.404816 
	C439.595520,333.664642 481.892242,364.189148 489.437500,365.916382 
	C483.904297,359.496826 477.141235,356.455627 471.050598,351.481506 
M443.233032,284.245941 
	C458.025360,294.679962 472.817688,305.113983 487.610046,315.548004 
	C488.121613,314.808655 488.633209,314.069336 489.144806,313.330017 
	C472.713379,301.393616 456.284332,289.453949 438.433929,277.512817 
	C438.697388,281.896606 441.232269,282.370758 443.233032,284.245941 
M468.095886,285.430969 
	C458.492340,278.665497 448.888824,271.900024 439.285278,265.134583 
	C439.876740,270.048065 483.884125,301.175934 488.639008,301.316498 
	C488.255890,300.659058 488.065918,299.931915 487.595612,299.586792 
	C481.313477,294.976562 474.992188,290.419708 468.095886,285.430969 
z"/>
<path fill="#000000" opacity="1.000000" stroke="none" 
	d="
M351.612396,390.000153 
	C351.617798,332.854889 351.569214,276.209473 351.741455,219.564728 
	C351.755981,214.784195 350.283997,212.496368 345.759033,210.869308 
	C336.058228,207.381088 326.639465,203.116348 317.013855,199.406677 
	C313.853821,198.188797 312.767731,196.390045 312.800690,193.054520 
	C312.955322,177.395157 312.973877,161.732834 312.835419,146.073395 
	C312.802673,142.371155 313.978455,139.776596 316.982941,137.626282 
	C331.745789,127.060493 346.461639,116.428108 361.114532,105.710518 
	C363.735962,103.793106 365.586975,103.897682 368.048645,106.093216 
	C388.430756,124.271759 408.900787,142.352005 429.402191,160.396103 
	C431.950500,162.638992 433.223358,165.068054 433.209198,168.577301 
	C433.108398,193.567200 433.176697,218.557770 433.181366,243.548126 
	C433.181915,246.462234 433.064880,249.339325 428.619202,249.925842 
	C426.895111,245.309631 427.345825,240.390198 427.901703,235.853928 
	C429.003815,226.860168 422.735931,223.480499 416.384186,218.354416 
	C416.384186,226.039413 416.102722,232.638031 416.491211,239.196945 
	C416.719177,243.046356 420.777588,244.433929 423.082703,246.958542 
	C424.394287,248.395050 427.733307,249.277832 425.816437,251.879333 
	C423.775208,254.649567 421.785248,252.226532 419.994110,250.775269 
	C419.135956,250.080002 418.495880,248.926056 416.875854,249.150024 
	C415.159821,251.932327 417.765503,256.086884 414.152557,258.989166 
	C411.391785,254.362930 414.118439,249.290527 412.243683,245.240845 
	C410.274445,240.987183 406.026764,238.538239 401.919800,235.020340 
	C401.227600,242.431198 401.060120,249.128479 401.478790,255.844971 
	C401.517822,256.471436 401.864807,257.120148 402.199615,257.680389 
	C405.936798,263.934021 405.943726,263.929901 399.034149,267.234894 
	C396.706696,264.725311 398.664703,260.338226 394.999512,258.178284 
	C392.218781,256.539612 390.001221,253.945358 386.912140,251.982590 
	C386.991577,260.041962 384.328949,268.045807 388.180939,275.802094 
	C388.775818,276.999939 389.139526,278.224640 388.539551,279.623413 
	C384.790375,288.363892 385.092682,297.143005 388.395111,305.934875 
	C388.804352,307.024384 389.219971,308.151215 388.667664,309.317688 
	C384.542755,318.029297 385.289764,326.784698 388.410889,335.565521 
	C388.803192,336.669312 389.337341,337.860168 388.760162,338.954773 
	C385.393250,345.340424 384.958466,352.832550 386.791473,358.856842 
	C388.823242,365.534302 386.278351,371.103973 386.423126,377.147034 
	C386.568237,383.203186 384.968842,389.473785 388.387848,395.219421 
	C388.842651,395.983643 389.066650,397.448273 388.642212,398.085449 
	C384.455078,404.371399 386.992371,411.397125 386.295685,418.048279 
	C386.122284,419.703674 386.422150,421.320526 387.523712,422.763428 
	C389.219574,424.984863 389.502869,427.219177 387.399048,429.504669 
	C385.772827,431.271332 386.458038,433.617889 386.230774,435.735565 
	C386.050201,437.418182 386.945770,439.508667 383.547058,441.017426 
	C382.376251,431.849457 384.706177,420.843933 371.931244,417.194977 
	C370.880707,424.885132 370.952545,432.518982 372.135468,440.733215 
	C366.261383,441.118011 360.362671,441.745605 354.458679,441.799774 
	C350.971039,441.831787 351.652405,438.692810 351.645905,436.482452 
	C351.600830,421.155121 351.618713,405.827606 351.612396,390.000153 
M396.769104,223.013794 
	C401.737915,209.970001 397.552582,197.332565 386.446930,193.038086 
	C386.620819,204.161880 382.422485,216.328232 396.769104,223.013794 
M387.569855,156.563812 
	C390.657043,159.124680 393.195343,162.431564 397.808289,164.333313 
	C397.808289,158.258224 397.847198,152.825287 397.797577,147.393143 
	C397.746094,141.754593 392.686340,135.819687 386.365112,134.225525 
	C386.597351,141.541809 385.282562,148.779831 387.569855,156.563812 
M379.625031,156.051361 
	C377.023102,154.196426 375.246338,151.222839 372.004181,149.886780 
	C368.644409,167.108337 371.083099,174.180099 382.797729,180.690323 
	C382.797729,174.968658 382.807251,169.531433 382.790924,164.094299 
	C382.786926,162.762848 382.705322,161.431381 382.647339,160.100433 
	C382.573456,158.405762 381.386017,157.462219 379.625031,156.051361 
M371.308838,182.420532 
	C371.301910,186.237976 371.282196,190.055466 371.290680,193.872879 
	C371.308533,201.925064 374.457794,206.483276 382.215881,209.720154 
	C385.385803,193.355057 382.186951,184.309052 371.519287,179.684326 
	C371.454803,180.368942 371.393158,181.023544 371.308838,182.420532 
M427.737579,206.603745 
	C427.764191,197.693008 424.972626,193.431625 416.975037,190.174561 
	C413.565369,205.446228 417.022888,215.556198 427.734528,220.049591 
	C427.734528,215.720856 427.734528,211.643112 427.737579,206.603745 
M379.351105,392.272705 
	C376.876740,390.571594 374.995056,387.973572 371.921295,386.818359 
	C368.968262,403.917603 371.469299,411.202576 382.506958,417.136780 
	C382.506958,410.014435 382.576324,403.156006 382.453766,396.301025 
	C382.426270,394.761292 381.006287,393.765106 379.351105,392.272705 
M388.973267,187.359940 
	C391.530518,189.626205 393.902252,192.140274 397.067719,193.879013 
	C400.467804,177.744888 396.588470,166.757141 386.284241,163.527664 
	C386.284241,169.758774 386.301453,175.890778 386.274292,182.022568 
	C386.265625,183.977188 386.902710,185.593094 388.973267,187.359940 
M372.424347,231.675278 
	C375.525848,234.516739 378.317505,237.761108 382.353149,239.793701 
	C382.556763,238.876251 382.750702,238.400696 382.754486,237.923660 
	C382.791046,233.265564 382.821533,228.607132 382.803650,223.948975 
	C382.776703,216.918945 379.314606,212.400711 371.497467,209.759003 
	C371.363647,217.004044 370.687317,224.026077 372.424347,231.675278 
M397.806427,235.878326 
	C397.503387,230.216583 392.752380,224.694733 386.858307,223.153915 
	C383.923279,239.016083 387.297211,248.649719 397.802795,252.818146 
	C397.802795,247.314011 397.802795,242.054581 397.806427,235.878326 
M376.416473,265.015656 
	C378.370911,266.275726 379.575684,268.762360 382.324066,268.963440 
	C384.805603,251.123322 382.275513,243.872849 371.799194,239.034897 
	C370.778168,244.340088 371.666504,249.630569 371.247131,254.844009 
	C370.904541,259.103546 372.340820,262.260803 376.416473,265.015656 
M371.346802,139.739105 
	C372.897583,145.503647 377.952362,147.666916 382.832611,151.993622 
	C382.832611,145.516541 382.851105,140.553421 382.828186,135.590500 
	C382.795990,128.627365 379.255646,123.754478 372.307617,121.215439 
	C372.032104,121.780014 371.514923,122.354965 371.502747,122.940407 
	C371.392365,128.252670 371.370178,133.566772 371.346802,139.739105 
M377.428101,325.004028 
	C379.060394,325.885712 379.850647,328.280884 382.274261,327.816681 
	C384.942566,310.992523 381.726379,301.936096 371.724915,298.451965 
	C370.877319,303.082642 371.739624,307.748749 371.224854,312.311127 
	C370.618439,317.685425 372.367645,321.689545 377.428101,325.004028 
M377.210999,295.226746 
	C378.929993,296.303406 379.931732,298.576477 382.753235,298.607880 
	C382.753235,293.878571 382.232788,289.321014 382.863342,284.928680 
	C384.113434,276.220947 378.152100,272.649353 372.178986,268.147369 
	C370.593903,273.363129 371.800903,278.202271 371.243134,282.887543 
	C370.625946,288.071808 372.300537,291.973877 377.210999,295.226746 
M426.669495,168.239731 
	C423.656189,165.587173 421.258850,162.116684 416.286469,160.342789 
	C416.286469,164.898529 416.826355,168.908600 416.179626,172.717194 
	C414.592072,182.066635 420.393158,186.483444 427.795593,191.224350 
	C427.313141,183.301346 428.499390,176.097107 426.669495,168.239731 
M411.338989,213.519409 
	C408.217285,211.079559 405.874878,207.555069 401.713684,206.172928 
	C400.662842,228.339691 401.956360,231.920959 412.818085,236.467041 
	C412.219635,228.915497 413.880951,221.475372 411.338989,213.519409 
M371.296295,342.292358 
	C369.832153,350.694855 376.621857,353.401917 381.421967,357.917206 
	C386.659760,344.836823 382.631531,332.615967 371.730682,327.986969 
	C370.865479,332.475739 371.483917,336.934570 371.296295,342.292358 
M401.541321,149.329514 
	C401.442230,153.146652 401.731873,157.022461 401.166321,160.769196 
	C399.823914,169.662994 406.003693,173.155762 412.214478,177.584152 
	C413.215607,172.491592 412.102020,167.945175 412.873993,163.634552 
	C414.345856,155.415649 408.564453,151.775131 403.580841,147.525848 
	C402.128448,146.287491 401.573181,147.120636 401.541321,149.329514 
M404.464325,200.894211 
	C407.052307,202.772339 408.812317,205.756409 412.340363,207.112183 
	C413.301331,201.791061 412.681915,196.859192 412.746338,191.965057 
	C412.845154,184.458572 409.551636,179.995392 401.760986,176.961746 
	C401.048096,183.460098 401.260010,189.888153 401.379028,196.311005 
	C401.413025,198.146179 402.690552,199.272293 404.464325,200.894211 
M382.755829,384.594269 
	C382.753448,380.439758 382.766327,376.285187 382.745270,372.130798 
	C382.711456,365.461243 379.383514,360.883759 372.089569,357.913269 
	C370.620697,362.479156 371.958557,367.189575 371.200592,371.630768 
	C369.843445,379.583038 375.674744,382.744781 380.488220,386.639252 
	C381.847687,387.739105 382.571075,386.816437 382.755829,384.594269 
z"/>
<path fill="#000000" opacity="1.000000" stroke="none" 
	d="
M295.285980,498.158875 
	C295.052429,493.425262 294.953766,489.098785 294.870575,484.772034 
	C294.747070,478.346466 294.316803,478.156494 288.271851,479.566162 
	C263.197449,485.413727 239.218979,494.213074 216.294952,505.916199 
	C215.588562,506.276825 214.819641,506.515015 213.550201,507.021667 
	C213.934036,503.097870 216.461899,501.105438 218.601028,499.052429 
	C235.676392,482.664429 255.606613,470.905060 277.695282,462.579926 
	C295.194580,455.984528 313.144592,451.136200 331.639221,448.509247 
	C358.249329,444.729614 384.836884,443.851807 411.681946,447.315399 
	C436.313019,450.493347 460.116089,456.350128 482.863098,465.978882 
	C502.620392,474.342133 520.618896,485.773621 535.492798,501.568756 
	C536.753052,502.907013 538.786316,503.929840 538.397644,506.778778 
	C531.265808,504.996948 525.314758,500.948547 518.832947,498.175446 
	C500.117584,490.168365 480.851471,483.863129 461.068878,479.080566 
	C457.942078,478.324615 457.135895,479.690155 457.116486,482.344696 
	C457.084808,486.677124 457.155396,491.013306 456.990204,495.340546 
	C456.893402,497.876129 456.478363,500.855835 453.200348,500.801453 
	C449.895477,500.746582 449.687866,497.843811 449.681641,495.227966 
	C449.670898,490.728638 449.527863,486.224091 449.699585,481.731689 
	C449.824005,478.477051 448.527222,476.731628 445.335083,476.209473 
	C437.953491,475.001953 430.623779,473.291687 423.196930,472.588501 
	C410.605682,471.396210 397.951660,470.880371 385.332733,469.960388 
	C380.912048,469.638092 378.975006,471.051910 379.245850,475.851044 
	C379.620880,482.495361 379.325836,489.177124 379.329651,495.842865 
	C379.331055,498.313263 379.142426,500.862885 375.901917,500.824402 
	C372.559235,500.784729 372.694885,498.049988 372.682800,495.692749 
	C372.649414,489.193817 372.412720,482.682251 372.737396,476.199768 
	C372.967560,471.604065 371.415985,470.030975 366.776154,470.193054 
	C349.458923,470.797821 332.194427,471.834259 315.082794,474.716003 
	C314.589905,474.799011 314.097412,474.886475 313.602234,474.953186 
	C302.328247,476.473206 302.332062,476.472748 302.302490,488.120941 
	C302.295288,490.953247 302.321716,493.788361 302.203827,496.616821 
	C302.122955,498.556885 301.380768,500.324097 299.350433,500.879272 
	C297.438812,501.401978 296.227539,500.206268 295.285980,498.158875 
z"/>
<path fill="#000000" opacity="1.000000" stroke="none" 
	d="
M232.023544,535.002075 
	C232.033249,553.492065 231.915146,571.484009 232.141479,589.471680 
	C232.199524,594.086182 230.684479,595.519226 226.115860,595.467041 
	C213.718842,595.325562 213.709412,595.504761 213.692215,583.002014 
	C213.679642,573.863770 213.689743,564.725586 212.596115,555.233704 
	C210.146591,560.492920 207.672806,565.741028 205.253571,571.014099 
	C202.130096,577.822266 198.861832,584.573242 196.026169,591.500427 
	C194.463562,595.317749 191.677902,595.341064 188.368484,595.447205 
	C184.944672,595.557007 182.869293,594.528137 181.422241,591.215149 
	C176.100647,579.031433 170.510254,566.965149 163.818863,554.904724 
	C163.818863,557.223450 163.810181,559.542297 163.820404,561.860962 
	C163.862244,571.354187 163.823456,580.848999 164.000168,590.339783 
	C164.065918,593.871399 162.969482,595.503662 159.160278,595.417480 
	C143.128967,595.054626 145.934631,597.544800 145.784363,582.466675 
	C145.590149,562.978882 145.851746,543.486511 145.635223,523.999146 
	C145.582260,519.231506 147.075104,517.498474 151.909317,517.678162 
	C167.666245,518.264038 163.627716,515.061829 170.172928,529.059021 
	C175.741592,540.967834 181.074371,552.986938 186.569855,564.930298 
	C187.085632,566.051270 187.098816,567.629150 189.404755,568.228394 
	C193.553574,559.360718 197.777237,550.391113 201.948730,541.397278 
	C204.960953,534.902832 207.988785,528.413147 210.837387,521.846558 
	C212.043350,519.066650 213.734314,517.586243 216.883835,517.721436 
	C220.542267,517.878296 224.213730,517.860535 227.875656,517.766479 
	C230.896057,517.688965 232.065002,519.126587 232.023148,522.009155 
	C231.962708,526.172668 232.017960,530.337952 232.023544,535.002075 
z"/>
<path fill="#000000" opacity="1.000000" stroke="none" 
	d="
M300.514618,548.057983 
	C299.104156,551.198975 297.040955,553.386353 295.074158,555.569458 
	C295.029541,557.328430 296.505707,557.788086 297.482727,558.570374 
	C304.984253,564.576599 305.985138,573.173157 303.213043,582.187988 
	C300.722992,590.285461 292.988373,595.248901 283.901581,595.331970 
	C272.907410,595.432556 261.908508,595.209839 250.918167,595.438599 
	C246.639313,595.527649 245.561005,593.794067 245.585419,589.833496 
	C245.723083,567.510986 245.744537,545.186768 245.600449,522.864441 
	C245.574371,518.826477 247.127167,517.642456 250.897552,517.707458 
	C260.057404,517.865356 269.225983,517.589111 278.383270,517.809692 
	C291.849487,518.134033 299.914093,524.793152 302.044250,536.916016 
	C302.702179,540.660339 301.582825,544.161194 300.514618,548.057983 
M264.003632,571.548706 
	C263.983978,579.670044 263.983978,579.669312 272.117737,579.652283 
	C274.112183,579.648071 276.111786,579.742737 278.100037,579.631470 
	C282.786713,579.369324 286.486572,576.054321 286.614471,572.116638 
	C286.748444,567.993713 283.422516,564.714722 278.499664,564.351379 
	C275.853516,564.156006 273.161133,564.493042 270.529816,564.212524 
	C265.601196,563.687073 263.229889,565.479431 264.003632,571.548706 
M280.163483,547.797302 
	C284.935181,543.446777 285.154266,538.196228 280.372742,535.559509 
	C275.786743,533.030640 270.696838,534.312927 265.796173,534.570801 
	C264.908051,534.617615 264.311096,535.464111 264.285370,536.312500 
	C264.175507,539.941711 264.098022,543.575684 264.167267,547.204834 
	C264.197021,548.764771 265.372711,549.570984 266.853668,549.560425 
	C271.105713,549.530151 275.478516,550.490540 280.163483,547.797302 
z"/>
<path fill="#000000" opacity="1.000000" stroke="none" 
	d="
M564.444580,517.040039 
	C588.078613,515.843018 606.898743,531.224304 608.561279,554.255005 
	C609.976196,573.855286 596.795776,591.800903 575.897400,595.901367 
	C549.010132,601.176880 523.596375,575.629639 529.799072,549.056824 
	C534.020996,530.970032 545.807129,520.479858 564.444580,517.040039 
M582.579834,574.125366 
	C590.871460,566.729248 593.135376,556.729248 588.698547,547.098267 
	C584.848755,538.741455 575.048035,533.398254 566.167419,534.814514 
	C557.089355,536.262268 549.452148,542.797241 547.508118,550.780701 
	C545.216187,560.193237 548.674438,569.840576 556.229858,575.111572 
	C563.594055,580.248962 573.742371,580.031433 582.579834,574.125366 
z"/>
<path fill="#000000" opacity="1.000000" stroke="none" 
	d="
M402.177612,570.007080 
	C400.267792,596.969788 372.588226,599.950928 358.052979,591.292175 
	C348.542908,585.627014 342.979218,572.795898 351.451447,560.601074 
	C353.373993,557.833862 353.410278,555.973389 351.432434,553.143982 
	C346.001190,545.374023 345.626617,536.982178 350.118805,528.634705 
	C354.341614,520.787781 361.344940,517.659119 370.034149,517.781311 
	C373.698669,517.832886 377.367889,517.893005 381.028625,517.765686 
	C384.278534,517.652649 385.285583,519.110413 385.390350,522.260071 
	C385.752350,533.143860 385.853424,533.139893 375.166840,533.433167 
	C374.500977,533.451416 373.829376,533.444214 373.171234,533.530823 
	C368.344421,534.165833 364.577911,537.501709 364.539551,541.150269 
	C364.499115,544.994995 369.513000,549.473389 374.148254,549.696228 
	C375.478271,549.760132 376.833374,549.573120 378.142517,549.752625 
	C383.049072,550.425354 385.426147,548.657227 384.693817,543.446289 
	C384.219727,540.072876 385.728577,538.466248 389.230011,538.738831 
	C391.051392,538.880676 392.893311,538.753662 394.725891,538.758728 
	C401.733398,538.778076 401.821991,538.775452 402.157806,545.722351 
	C402.282410,548.299866 402.942047,549.984497 405.853882,549.753540 
	C409.556641,549.459900 410.421204,551.558105 410.253326,554.715454 
	C410.147339,556.709167 410.167358,558.714783 410.236511,560.711426 
	C410.328674,563.372559 409.078430,564.896057 406.461609,564.931030 
	C403.260010,564.973816 401.889465,566.442993 402.177612,570.007080 
M372.768616,579.830627 
	C374.088409,579.786621 375.431030,579.883179 376.723938,579.673401 
	C381.423218,578.911011 385.486023,573.146423 384.574341,568.105286 
	C383.625427,562.858154 379.084442,565.416382 376.100372,564.689575 
	C375.040070,564.431396 373.809052,564.838318 372.661072,564.981995 
	C367.530762,565.624084 364.228271,568.363708 364.199280,572.376648 
	C364.162750,577.438477 367.805695,578.934265 372.768616,579.830627 
z"/>
<path fill="#000000" opacity="1.000000" stroke="none" 
	d="
M484.484924,596.394409 
	C465.789001,594.890198 449.949371,580.449890 447.786194,563.296753 
	C445.224304,542.981873 455.850952,526.342041 474.186462,519.102722 
	C488.837067,513.318298 510.322540,519.783691 519.733276,533.901123 
	C522.067810,537.403381 522.457703,539.842407 517.848145,541.373596 
	C516.755066,541.736755 515.671204,542.278564 514.740723,542.954895 
	C510.086792,546.338013 506.795959,546.298157 502.375305,541.384705 
	C493.777527,531.828308 479.662750,532.494873 470.923523,541.751404 
	C462.854431,550.298035 463.290680,564.763062 471.861298,572.843811 
	C480.958923,581.421448 495.219666,581.068481 503.430511,571.298523 
	C506.916565,567.150574 509.572998,567.123840 513.374329,569.894531 
	C514.172302,570.476135 515.129211,570.841431 516.018005,571.296326 
	C523.210449,574.977539 523.299561,575.404541 518.218628,581.540588 
	C509.564453,591.992065 498.446869,596.919678 484.484924,596.394409 
z"/>
<path fill="#000000" opacity="1.000000" stroke="none" 
	d="
M343.052643,312.111633 
	C346.514893,316.377563 345.311035,320.977997 344.498749,325.227875 
	C343.949677,328.100586 341.253662,326.611023 339.510651,325.922180 
	C330.536926,322.375763 321.564331,318.821686 312.663208,315.098572 
	C308.532196,313.370697 304.614990,310.668640 300.439453,314.694366 
	C299.752655,313.713745 299.327728,313.358063 299.228668,312.927460 
	C297.985107,307.521454 297.540131,307.179138 292.849976,309.693298 
	C283.172882,314.880737 273.581543,320.228455 263.969879,325.537323 
	C262.406281,326.400970 260.991333,327.588318 259.092163,327.646881 
	C258.241211,325.866425 259.662048,325.370697 260.494659,324.823395 
	C272.753113,316.765533 283.671326,306.927643 295.598724,298.421143 
	C299.680908,295.509796 303.001953,294.852142 307.805481,297.089264 
	C319.257202,302.422607 331.060059,307.001984 343.052643,312.111633 
z"/>
<path fill="#000000" opacity="1.000000" stroke="none" 
	d="
M326.793945,344.254822 
	C321.322601,342.111694 316.188049,340.167542 311.122864,338.056793 
	C307.674744,336.619934 304.282990,335.457977 300.916351,337.348694 
	C299.500702,336.843750 299.255798,335.847076 299.072479,334.867981 
	C298.383301,331.186951 296.293091,331.325470 293.582184,332.721497 
	C284.116669,337.595978 274.712494,342.577209 265.609528,348.111908 
	C263.842316,349.186371 262.168915,350.639221 259.985748,350.527405 
	C259.445312,349.508453 259.855988,349.035431 260.408539,348.620514 
	C272.641113,339.434082 284.914948,330.301727 297.078217,321.024414 
	C299.904480,318.868713 302.431549,318.458618 305.782104,319.913055 
	C317.067688,324.812042 328.479431,329.420044 339.835876,334.156311 
	C344.578217,336.134155 347.258453,344.535065 344.592224,348.875305 
	C343.514130,350.630280 342.081360,350.120728 340.661041,349.581268 
	C336.153015,347.868927 331.659454,346.118500 326.793945,344.254822 
z"/>
<path fill="#000000" opacity="1.000000" stroke="none" 
	d="
M295.620758,284.644043 
	C283.565918,291.233063 271.847107,297.687073 260.183228,304.110809 
	C259.147675,302.644287 259.848755,302.046875 260.480499,301.575653 
	C272.348358,292.724243 284.306213,283.991150 296.071686,275.006042 
	C299.786896,272.168793 302.995178,271.689209 307.428497,273.674286 
	C318.201477,278.498077 329.263611,282.673920 340.187378,287.164062 
	C344.539459,288.952881 347.157898,298.118042 344.429199,302.008026 
	C342.807434,304.320038 340.828735,302.865295 339.071564,302.172760 
	C329.938843,298.573181 320.750549,295.094391 311.756500,291.172424 
	C307.879517,289.481842 304.262085,288.983063 300.892090,290.553986 
	C297.668854,289.341614 300.803802,283.958191 295.620758,284.644043 
z"/>
<path fill="#000000" opacity="1.000000" stroke="none" 
	d="
M314.033325,346.829651 
	C321.926605,350.045685 329.473145,353.101074 336.993500,356.219635 
	C345.430206,359.718231 347.201813,364.125916 343.958679,373.490631 
	C342.057068,374.249603 340.463287,373.112976 338.823547,372.462891 
	C329.245758,368.665619 319.668457,364.865845 310.129547,360.972412 
	C306.981689,359.687592 303.952362,358.019104 300.883423,361.239288 
	C300.163116,360.273834 299.543304,359.812653 299.452545,359.263977 
	C298.587280,354.032074 295.739502,354.794312 292.282684,356.703156 
	C283.258484,361.686371 274.199829,366.607727 265.124512,371.497345 
	C263.579254,372.329895 262.203796,373.726196 260.164429,373.453217 
	C259.486115,371.829010 260.905701,371.385834 261.713593,370.784515 
	C272.649170,362.645569 283.782166,354.760864 294.506500,346.354218 
	C299.341675,342.563965 303.795563,341.813171 309.059479,344.820923 
	C310.488708,345.637543 312.130707,346.081787 314.033325,346.829651 
z"/>
<path fill="#000000" opacity="1.000000" stroke="none" 
	d="
M345.013428,393.573853 
	C344.641357,397.832031 342.307556,397.039856 339.978882,396.122040 
	C331.474396,392.770050 322.981506,389.388672 314.479736,386.029724 
	C309.894836,384.218262 305.396484,381.720795 300.592346,384.353149 
	C298.318176,382.849579 299.843842,380.128296 297.201416,378.279388 
	C284.459351,383.630127 272.493866,391.673615 259.742188,398.002686 
	C258.812469,396.558685 259.584595,395.936951 260.202698,395.535370 
	C273.190002,387.097931 284.665131,376.642426 297.304565,367.735321 
	C300.069641,365.786774 302.446838,365.367401 305.571320,366.704407 
	C317.180450,371.672028 328.822388,376.571625 340.552856,381.243500 
	C346.676331,383.682312 344.642853,388.773163 345.013428,393.573853 
z"/>
<path fill="#000000" opacity="1.000000" stroke="none" 
	d="
M344.606781,267.851501 
	C344.916504,271.881226 345.484436,275.524933 344.177826,278.992157 
	C342.111145,280.171692 340.509583,278.946869 338.870056,278.311859 
	C330.345673,275.010162 321.854065,271.623566 313.319031,268.349945 
	C309.095947,266.730164 305.006744,263.722229 300.586975,267.097870 
	C298.747955,265.115906 300.451172,262.981445 298.415222,260.658295 
	C285.113770,265.432495 273.280945,274.191437 259.653442,279.418610 
	C259.965240,278.902649 260.158600,278.228119 260.606110,277.893860 
	C272.853790,268.745300 285.152344,259.664642 297.378906,250.488022 
	C300.380646,248.235062 303.082367,248.185287 306.570496,249.743347 
	C317.634918,254.685532 328.891052,259.197601 340.054016,263.921051 
	C341.830292,264.672668 344.017426,265.016907 344.606781,267.851501 
z"/>
<path fill="#000000" opacity="1.000000" stroke="none" 
	d="
M319.090118,231.836975 
	C326.675018,234.927567 333.933472,237.808792 341.134552,240.826935 
	C344.532928,242.251282 346.677216,252.884888 344.089233,255.424652 
	C342.447815,257.035492 340.645264,255.831070 338.992188,255.174026 
	C330.341309,251.735626 321.735657,248.180878 313.050262,244.832687 
	C308.965118,243.257843 304.857788,240.497223 300.826111,244.177933 
	C297.897034,242.247147 300.030029,239.286362 297.852814,236.878464 
	C285.112000,242.506927 273.359924,250.584610 260.716217,256.718414 
	C259.657288,255.412720 260.504822,254.806961 261.089539,254.369247 
	C273.061188,245.407227 285.093018,236.525223 297.029449,227.516769 
	C300.038177,225.246078 302.901123,224.979279 306.296906,226.557968 
	C310.360657,228.447205 314.585236,229.990570 319.090118,231.836975 
z"/>
<path fill="#000000" opacity="1.000000" stroke="none" 
	d="
M261.418457,420.850220 
	C259.111359,419.993561 260.450012,419.249390 261.296234,418.612305 
	C273.661957,409.303497 286.055511,400.031616 298.407196,390.704254 
	C300.353485,389.234497 302.264496,389.076019 304.473450,389.978790 
	C316.794434,395.014343 329.155579,399.952240 341.454468,405.040802 
	C344.757721,406.407471 346.743042,417.081451 344.306213,419.709045 
	C342.823517,421.307861 341.197784,420.235870 339.713074,419.644348 
	C331.211761,416.257324 322.770477,412.715912 314.227905,409.437775 
	C309.730042,407.711761 305.320740,404.263550 300.214813,408.589294 
	C299.765900,407.192902 299.359863,406.569824 299.410278,405.986145 
	C299.836426,401.050934 297.405273,400.966095 293.975983,402.794220 
	C284.137817,408.038757 274.220093,413.142883 264.769928,419.085052 
	C263.786743,419.703278 262.738739,420.218323 261.418457,420.850220 
z"/>
<path fill="#000000" opacity="1.000000" stroke="none" 
	d="
M318.714325,419.202515 
	C326.418549,422.473938 333.804413,425.520508 341.130951,428.703522 
	C344.138062,430.009949 346.201263,439.195282 343.818848,441.294830 
	C341.422791,443.406433 338.445770,442.453094 335.800842,441.420624 
	C329.444092,438.939331 323.171722,436.240875 316.804504,433.787811 
	C311.450348,431.725037 306.259552,428.561157 300.447113,430.934875 
	C298.273346,429.092499 300.521606,426.631439 297.891846,424.233826 
	C286.015076,430.632568 273.721771,437.255768 261.545898,443.815674 
	C260.307007,442.430176 261.135498,441.862854 261.749146,441.403015 
	C273.741638,432.415863 285.782715,423.493256 297.736542,414.455109 
	C300.465912,412.391479 302.824707,412.184875 305.948822,413.847321 
	C309.892853,415.946075 314.213745,417.336578 318.714325,419.202515 
z"/>
<path fill="#000000" opacity="1.000000" stroke="none" 
	d="
M332.192566,213.695831 
	C334.076904,214.494217 335.595673,215.177139 337.122009,215.842728 
	C344.394745,219.014084 345.963318,221.965790 344.846619,229.598694 
	C344.445984,232.337128 343.116302,233.102142 340.777130,232.180267 
	C328.853119,227.480972 316.958130,222.708054 305.058746,217.946411 
	C304.605713,217.765121 303.959290,217.525803 303.828308,217.160843 
	C301.171082,209.759354 296.949158,213.447067 292.981476,215.617828 
	C283.050293,221.051376 273.142456,226.527603 263.204163,231.947998 
	C262.271759,232.456543 261.366333,233.543961 260.088898,232.654465 
	C259.769135,231.616165 260.434570,231.051529 261.105011,230.617340 
	C273.837372,222.371979 284.946533,211.931351 297.645142,203.626083 
	C300.318176,201.877838 302.562134,201.490768 305.502502,202.746277 
	C314.228485,206.472183 323.047729,209.979568 332.192566,213.695831 
z"/>
<path fill="#000000" opacity="1.000000" stroke="none" 
	d="
M589.613342,659.602966 
	C589.268616,660.962402 589.083801,661.945068 588.830139,662.909607 
	C588.247681,665.123596 586.879272,666.225830 584.498718,666.216553 
	C582.054993,666.206970 581.028503,664.918396 580.334045,662.744995 
	C579.550110,660.291992 579.977234,657.407715 577.488586,654.897766 
	C576.519043,657.826965 575.634827,660.408569 574.813477,663.010071 
	C574.217712,664.897339 573.364319,666.255676 571.027039,666.220886 
	C568.662048,666.185669 567.279724,665.147217 566.644043,662.946228 
	C565.352234,658.473877 564.038147,654.007751 562.773987,649.527649 
	C562.416565,648.260925 562.184082,646.963257 560.936096,645.947327 
	C557.508362,647.532593 555.804199,650.546082 553.771851,653.353210 
	C556.453491,657.522156 560.575806,660.377319 562.606873,664.817627 
	C557.810364,667.140686 557.810364,667.140686 548.789490,657.612854 
	C547.706360,658.932983 548.288086,660.468384 548.147217,661.842102 
	C547.932556,663.934387 547.700012,665.971375 544.948242,666.034607 
	C542.138123,666.099304 541.770874,664.081787 541.755554,661.958496 
	C541.718201,656.793518 541.740906,651.627991 541.765808,646.462769 
	C541.775452,644.458984 542.252930,642.833618 544.750305,642.720032 
	C547.097229,642.613342 548.109985,643.703064 548.119995,645.974854 
	C548.123535,646.781616 548.301758,647.587524 548.571045,649.791626 
	C552.217407,644.175964 556.536926,642.531067 562.312622,642.414185 
	C570.901733,642.240234 567.724243,650.164978 571.507996,653.735352 
	C572.309631,651.098511 573.134644,648.647461 573.789368,646.151672 
	C574.362793,643.965942 575.408142,642.645569 577.902832,642.666565 
	C580.221619,642.686096 581.095520,643.977722 581.601074,645.948059 
	C582.255066,648.496521 583.021973,651.015930 583.803406,653.770386 
	C588.064270,651.067871 584.052551,640.972046 594.191956,643.277039 
	C592.647278,648.810425 591.194580,654.014160 589.613342,659.602966 
z"/>
<path fill="#000000" opacity="1.000000" stroke="none" 
	d="
M399.115082,642.772644 
	C404.423798,642.763733 409.244598,642.696228 414.065521,642.683655 
	C415.556976,642.679749 417.231049,642.612976 417.646423,644.567749 
	C418.069916,646.560791 417.123352,647.852539 415.138794,648.101379 
	C412.377869,648.447388 412.234070,650.348083 412.244751,652.461426 
	C412.260742,655.620972 412.253815,658.780701 412.233215,661.940247 
	C412.219208,664.088501 411.859161,666.032532 409.093201,666.069702 
	C406.397766,666.105835 405.790924,664.341797 405.790192,662.099976 
	C405.789215,659.106567 405.633759,656.103882 405.817902,653.122070 
	C406.058014,649.233826 404.688812,647.432617 400.592255,648.421143 
	C399.271637,650.548218 399.608154,652.847717 399.672211,655.171570 
	C399.870178,662.354431 396.458710,666.145081 389.880127,666.262085 
	C383.223236,666.380554 379.847412,662.865906 379.716217,655.619995 
	C379.662048,652.627563 379.697174,649.633484 379.685516,646.640198 
	C379.676971,644.456116 380.017578,642.634888 382.879669,642.708557 
	C385.825256,642.784485 385.831390,644.856140 385.848816,646.894714 
	C385.875641,650.037781 385.159332,653.171509 385.947144,656.329346 
	C386.502167,658.553955 387.129303,660.768372 389.940399,660.501465 
	C392.519684,660.256714 393.466125,658.186096 393.585175,655.865356 
	C393.729858,653.044922 393.831604,650.200256 393.628479,647.389404 
	C393.353699,643.586914 395.031464,642.214417 399.115082,642.772644 
z"/>
<path fill="#000000" opacity="1.000000" stroke="none" 
	d="
M166.057434,656.209473 
	C166.106522,652.936523 166.141602,650.115845 166.196442,647.295654 
	C166.231186,645.508911 165.787857,643.366821 168.254807,642.844360 
	C170.625824,642.342285 172.881485,642.455505 174.165359,645.157349 
	C175.770126,648.534363 176.760422,652.265442 179.562607,655.345764 
	C182.179810,652.483643 183.179031,649.103027 184.502914,645.950439 
	C185.691025,643.121216 187.694473,642.299316 190.457077,642.753418 
	C193.316162,643.223206 192.830200,645.605286 192.868149,647.479126 
	C192.962296,652.127136 192.943436,656.780457 192.833969,661.428406 
	C192.782333,663.620911 192.563309,666.020386 189.520508,666.036804 
	C186.129807,666.055115 186.797485,663.373169 186.679581,661.324951 
	C186.595963,659.872253 186.663376,658.410889 185.780930,656.696960 
	C184.892715,658.562683 184.059479,660.457275 183.099655,662.285400 
	C182.267807,663.869812 181.644775,665.967224 179.449783,665.931885 
	C177.268341,665.896790 176.734085,663.745178 175.852814,662.196472 
	C174.972137,660.648865 174.194153,659.042725 173.230850,657.192810 
	C171.844025,659.191956 172.555283,661.064514 172.377945,662.794434 
	C172.188095,664.646545 171.748749,666.079224 169.548309,666.119263 
	C167.521240,666.156128 166.409119,665.031677 166.240295,663.138184 
	C166.048874,660.990906 166.103897,658.821655 166.057434,656.209473 
z"/>
<path fill="#000000" opacity="1.000000" stroke="none" 
	d="
M370.522705,642.741577 
	C371.446777,642.917908 371.974335,642.960144 372.396149,643.193481 
	C375.091705,644.684875 378.490479,656.759399 377.215363,660.854309 
	C375.659546,665.850464 371.488251,666.192627 367.155243,666.233276 
	C358.841644,666.311279 358.835571,666.347534 358.798218,658.164429 
	C358.783813,655.011658 359.036499,651.838196 358.758423,648.710632 
	C358.325623,643.843201 360.423645,642.035950 365.103699,642.588806 
	C366.742889,642.782471 368.418365,642.669067 370.522705,642.741577 
M370.197998,659.220032 
	C369.958527,656.727356 368.198120,657.135437 366.645416,657.484131 
	C365.757324,657.683533 365.363922,658.633606 365.846069,659.390015 
	C366.968170,661.150330 368.436798,660.897339 370.197998,659.220032 
z"/>
<path fill="#000000" opacity="1.000000" stroke="none" 
	d="
M213.601440,653.198059 
	C213.570679,650.903320 213.522125,649.077454 213.514297,647.251465 
	C213.507385,645.641174 212.954514,643.618225 214.997787,642.962830 
	C217.082489,642.294128 219.234573,642.323730 220.818558,644.451416 
	C223.087585,647.499207 225.480194,650.454956 228.215759,653.956543 
	C229.593369,651.194885 228.892029,648.733643 229.084793,646.433105 
	C229.275421,644.157898 229.911362,642.588135 232.615387,642.720947 
	C235.258713,642.850891 235.320877,644.674500 235.325439,646.570068 
	C235.337830,651.717407 235.361237,656.865051 235.308731,662.011902 
	C235.292404,663.611389 235.605286,665.538330 233.335785,666.013000 
	C231.428360,666.411987 229.701645,666.016968 228.434540,664.373901 
	C225.741898,660.882202 223.048355,657.391174 219.431992,652.703064 
	C219.431992,656.769897 219.437531,659.382141 219.430252,661.994324 
	C219.424286,664.140259 219.133682,666.109070 216.299164,666.029419 
	C213.682693,665.955933 213.628479,664.021057 213.611252,662.134888 
	C213.585495,659.312439 213.602524,656.489563 213.601440,653.198059 
z"/>
<path fill="#000000" opacity="1.000000" stroke="none" 
	d="
M336.698029,658.848755 
	C335.471863,661.519226 337.514160,666.366394 332.396484,665.915649 
	C327.774414,665.508362 329.925720,661.225464 329.699463,658.630310 
	C329.340424,654.512878 329.592590,650.343018 329.564850,646.195435 
	C329.548157,643.698120 330.763794,642.580811 333.250885,642.653503 
	C335.578644,642.721558 337.928711,642.478638 340.235870,642.706909 
	C345.459259,643.223694 349.000275,648.716614 346.016510,652.789917 
	C343.061218,656.824402 344.451660,659.291382 346.782776,662.304321 
	C347.371216,663.064880 348.063354,663.883362 347.502380,665.404846 
	C345.019135,666.809326 342.753693,666.329041 340.839783,663.897339 
	C339.513153,662.211792 338.241577,660.482971 336.698029,658.848755 
z"/>
<path fill="#000000" opacity="1.000000" stroke="none" 
	d="
M440.856293,649.507751 
	C442.829346,657.197998 440.753235,662.090576 434.529816,665.166504 
	C429.684540,667.561218 424.322113,666.300659 420.699158,661.915222 
	C416.207550,656.478333 416.768311,649.763611 422.102325,645.112854 
	C426.777222,641.036865 434.331421,641.559326 438.686310,646.314026 
	C439.462494,647.161499 440.025574,648.204102 440.856293,649.507751 
M424.122681,653.633301 
	C425.122955,659.059875 428.383942,661.700439 431.766022,659.710999 
	C434.134827,658.317505 436.095673,656.449585 435.548431,653.331543 
	C435.066467,650.585754 433.198181,648.854004 430.534973,648.524719 
	C427.343811,648.130127 425.186707,649.777283 424.122681,653.633301 
z"/>
<path fill="#000000" opacity="1.000000" stroke="none" 
	d="
M265.361816,643.054565 
	C267.780548,642.799805 269.772034,642.634827 271.758575,642.681396 
	C277.692932,642.820312 282.570190,646.681274 283.261871,651.691406 
	C284.218262,658.619019 281.200775,663.524536 274.820770,665.569153 
	C272.214081,666.404480 269.572388,666.255676 266.920837,666.131104 
	C265.450256,666.062012 264.078674,665.355957 264.095856,663.855652 
	C264.174683,656.978882 262.532104,650.021179 265.361816,643.054565 
M270.214661,652.795776 
	C270.557587,655.299500 269.348053,658.058533 271.309143,660.306946 
	C277.105896,658.889465 279.314697,654.120850 276.028839,650.304932 
	C275.034393,649.150024 273.741333,648.286133 272.150818,648.495667 
	C270.093353,648.766541 270.364960,650.520203 270.214661,652.795776 
z"/>
<path fill="#000000" opacity="1.000000" stroke="none" 
	d="
M452.099976,658.963440 
	C449.693665,659.854492 450.771942,661.914124 450.474945,663.505981 
	C450.141571,665.292725 449.260559,666.128113 447.466980,666.109558 
	C445.590515,666.090149 444.744537,665.071533 444.740234,663.302307 
	C444.725677,657.323853 444.711578,651.344727 444.793915,645.367310 
	C444.804047,644.631409 445.210175,643.687378 445.756653,643.212646 
	C447.369537,641.811401 457.457031,642.696472 459.165558,644.374146 
	C462.528900,647.676880 462.977600,651.298279 459.772430,654.934326 
	C458.350250,656.547729 458.799927,657.779175 459.702026,659.371155 
	C460.733551,661.191528 462.577881,662.631165 462.632324,665.269104 
	C459.704132,666.950073 457.408142,666.212952 455.504608,663.559387 
	C454.441193,662.076965 453.383209,660.590637 452.099976,658.963440 
M455.251648,649.710754 
	C454.100342,647.875610 452.622131,647.913391 451.143921,649.173035 
	C450.838287,649.433472 450.823944,650.645020 451.120911,650.900696 
	C452.619720,652.191345 454.087067,652.102051 455.251648,649.710754 
z"/>
<path fill="#000000" opacity="1.000000" stroke="none" 
	d="
M514.131287,642.789551 
	C516.859314,642.696533 517.343506,644.158203 517.347046,646.015198 
	C517.357544,651.504517 517.379578,656.993958 517.360229,662.483154 
	C517.354126,664.218079 517.165344,665.909363 514.844177,666.040527 
	C512.353882,666.181335 511.819275,664.643433 511.695099,662.557068 
	C511.591675,660.819092 512.200867,658.789185 510.177551,657.619141 
	C507.364594,655.992493 504.418213,657.688049 504.137115,661.283569 
	C503.923096,664.021179 503.559052,666.494263 500.000275,666.051575 
	C496.654358,665.635437 496.852997,662.789551 497.208252,660.627136 
	C497.974182,655.964539 497.046051,651.329468 497.450073,646.697998 
	C497.629639,644.639648 497.772064,642.686279 500.686157,642.698792 
	C503.432709,642.710632 504.026337,644.296326 504.080383,646.556274 
	C504.139893,649.043030 503.779144,651.678955 507.682709,651.718689 
	C511.725769,651.759766 511.700562,649.162048 511.711517,646.364868 
	C511.717468,644.849731 511.726868,643.288269 514.131287,642.789551 
z"/>
<path fill="#000000" opacity="1.000000" stroke="none" 
	d="
M522.709473,653.780396 
	C523.733704,650.920532 524.813660,648.482300 525.547180,645.943970 
	C526.200562,643.683105 527.434204,642.698853 529.789978,642.627991 
	C532.343567,642.551270 533.723328,643.584412 534.552002,645.989685 
	C536.383118,651.304382 538.437561,656.541748 540.356812,661.826660 
	C540.860596,663.213989 541.577942,664.893921 539.751587,665.749512 
	C538.036926,666.552734 536.338623,666.410950 534.861389,664.721680 
	C530.859558,660.145691 529.051025,660.090637 525.268372,664.481079 
	C523.845398,666.132690 522.234619,666.586975 520.434143,665.853638 
	C518.128784,664.914490 519.333191,663.026917 519.797241,661.583618 
	C520.606445,659.066833 521.662109,656.629272 522.709473,653.780396 
z"/>
<path fill="#000000" opacity="1.000000" stroke="none" 
	d="
M595.975586,654.096313 
	C597.063843,651.079102 598.037292,648.436218 598.974243,645.780457 
	C599.723145,643.657715 601.090271,642.650085 603.440613,642.613647 
	C605.830200,642.576599 606.932739,643.607605 607.771362,645.770752 
	C610.257263,652.183167 612.812622,658.556702 614.630493,665.441589 
	C611.576538,666.462830 609.658264,666.324646 607.859253,664.151245 
	C604.612854,660.229248 601.794128,660.207764 598.801331,664.143311 
	C597.007141,666.502747 595.170654,666.600952 592.667419,665.281372 
	C592.467468,661.280457 595.154541,658.147705 595.975586,654.096313 
z"/>
<path fill="#000000" opacity="1.000000" stroke="none" 
	d="
M288.381836,452.476685 
	C283.681824,454.652924 279.319916,456.678284 274.929382,458.639618 
	C274.385132,458.882690 273.688751,458.785309 273.183136,458.834106 
	C272.288025,457.677094 273.017975,457.091644 273.639282,456.612122 
	C281.526093,450.525360 289.490662,444.537537 297.303253,438.357391 
	C300.139709,436.113647 302.726044,435.860016 305.985382,437.433746 
	C310.963013,439.837067 316.333679,441.431396 321.451538,444.682739 
	C317.911163,447.346130 314.207031,447.239044 310.669678,447.565521 
	C309.112457,447.709229 308.479156,446.399536 308.002441,445.057312 
	C306.558899,440.992584 303.724030,441.460327 301.509827,443.832520 
	C297.865601,447.736603 293.005249,449.538391 288.381836,452.476685 
z"/>
<path fill="#000000" opacity="1.000000" stroke="none" 
	d="
M494.743225,659.394287 
	C492.543152,664.880676 487.359283,667.398804 481.961151,666.008850 
	C476.714478,664.657959 472.521240,659.098145 472.752563,653.799194 
	C472.982208,648.537903 477.494720,643.315552 482.468140,642.662476 
	C486.576813,642.122925 490.439301,642.625244 493.513977,645.786133 
	C494.442749,646.740906 495.575012,647.807007 494.558868,649.215942 
	C493.537567,650.632019 492.092804,651.501709 490.252045,650.574768 
	C489.220001,650.055176 488.303040,649.275757 487.238190,648.858582 
	C484.150909,647.649048 481.773010,648.715698 479.923248,651.340454 
	C478.167023,653.832642 478.783936,656.024597 480.686707,658.063293 
	C482.833923,660.363953 485.225128,661.550659 488.052338,659.195374 
	C490.243225,657.370239 492.357544,656.709839 494.743225,659.394287 
z"/>
<path fill="#000000" opacity="1.000000" stroke="none" 
	d="
M140.081451,665.630066 
	C132.441467,666.901855 127.078049,664.173828 124.718231,658.172302 
	C122.792816,653.275574 124.853973,647.383484 129.590286,644.244873 
	C133.902176,641.387512 140.974747,641.973816 144.399780,645.496277 
	C145.571335,646.701172 146.957458,647.977234 145.422897,649.751953 
	C144.206985,651.158081 142.651260,651.525940 140.954956,650.446289 
	C140.252716,649.999451 139.560013,649.530151 138.824417,649.144592 
	C136.052490,647.691711 133.550751,648.257080 131.691467,650.624878 
	C129.877090,652.935425 129.568573,655.524841 131.767151,657.874268 
	C133.865799,660.117004 136.179001,661.543152 139.127716,659.138000 
	C139.640305,658.719910 140.225922,658.379517 140.810440,658.063721 
	C142.646835,657.071655 144.485901,657.105286 145.702072,658.881897 
	C146.934570,660.682434 145.472488,662.085693 144.276184,663.155701 
	C143.186920,664.130005 141.746414,664.711670 140.081451,665.630066 
z"/>
<path fill="#000000" opacity="1.000000" stroke="none" 
	d="
M154.137451,642.625366 
	C156.776733,642.636230 158.942871,642.628845 161.107559,642.681458 
	C162.786179,642.722290 164.089722,643.318970 164.045135,645.278015 
	C164.003815,647.092834 162.850677,647.825623 161.176804,648.140137 
	C159.316315,648.489685 156.748611,647.476074 155.939621,650.196655 
	C157.605591,653.206909 162.570999,649.764526 162.796524,654.024780 
	C163.055710,658.921021 157.270905,655.726562 155.764648,658.689270 
	C156.509491,661.607788 158.950592,660.431702 160.689651,660.657898 
	C162.503479,660.893860 164.088928,661.188965 164.042358,663.434875 
	C163.996201,665.660583 162.349152,666.089600 160.571594,666.132568 
	C147.842407,666.440369 148.765991,666.941406 148.941010,655.794189 
	C148.985474,652.963074 149.016525,650.127563 148.910477,647.299438 
	C148.783905,643.923828 150.230560,642.306030 154.137451,642.625366 
z"/>
<path fill="#000000" opacity="1.000000" stroke="none" 
	d="
M209.649506,661.018860 
	C210.881226,661.892029 211.415878,662.967773 210.900421,663.834656 
	C208.310516,668.190552 204.016876,665.627625 200.494919,666.146301 
	C198.113220,666.497009 196.074265,665.559998 196.043076,662.708496 
	C195.981094,657.045227 196.037552,651.379761 196.118164,645.716248 
	C196.146332,643.737244 197.250183,642.682678 199.290421,642.685486 
	C202.289337,642.689575 205.288986,642.629822 208.286926,642.680237 
	C209.709244,642.704102 210.976868,643.140930 211.010178,644.909058 
	C211.042770,646.639343 210.188339,647.621948 208.481750,648.101807 
	C206.567871,648.640015 204.058243,647.229858 202.699448,649.695618 
	C203.140686,651.905396 204.859131,651.532349 206.274277,651.670410 
	C207.918747,651.830688 209.867798,651.608154 209.884140,654.055542 
	C209.899918,656.418762 208.286728,657.098145 206.229614,657.228821 
	C204.943832,657.310547 203.489380,657.127625 202.736038,659.000671 
	C204.205704,661.846130 207.168976,660.033264 209.649506,661.018860 
z"/>
<path fill="#000000" opacity="1.000000" stroke="none" 
	d="
M308.431335,648.213257 
	C306.365143,650.744385 304.133850,647.367249 302.126648,648.881653 
	C302.910034,651.141479 305.183411,651.203064 306.799988,652.158264 
	C309.650635,653.842712 312.170929,655.867065 311.644592,659.579651 
	C311.118683,663.288940 308.663910,665.460388 305.017975,666.113586 
	C301.284088,666.782593 298.090881,665.645752 295.619629,662.733643 
	C294.755524,661.715332 294.755554,660.558899 295.745758,659.596130 
	C296.870911,658.502136 298.129730,657.811218 299.784271,658.582336 
	C301.138611,659.213562 302.127563,661.297241 304.326477,659.593018 
	C304.280518,656.812073 301.632141,656.675720 299.970795,655.710999 
	C295.545593,653.140991 294.026306,649.506348 296.091217,645.922546 
	C297.958313,642.682129 303.601868,641.264404 307.213348,643.109924 
	C309.415192,644.235046 310.052094,645.799500 308.431335,648.213257 
z"/>
<path fill="#000000" opacity="1.000000" stroke="none" 
	d="
M249.676559,642.635010 
	C251.832428,642.721375 253.599701,642.773499 253.689728,645.106201 
	C253.756851,646.845093 252.872131,647.959351 251.113708,648.156555 
	C248.344070,648.467224 248.274933,650.440613 248.276550,652.521851 
	C248.279114,655.832031 248.257507,659.142273 248.241699,662.452454 
	C248.231918,664.499451 247.635498,666.073608 245.203033,666.085388 
	C242.921066,666.096375 241.914062,664.799255 241.863495,662.660583 
	C241.804840,660.179260 241.864578,657.694885 241.794250,655.214050 
	C241.705658,652.088928 242.884369,648.335327 237.800842,647.720459 
	C236.582443,647.573181 236.299454,646.088684 236.458969,644.846130 
	C236.672150,643.185364 237.836334,642.724304 239.293579,642.708252 
	C242.603500,642.671875 245.913605,642.653809 249.676559,642.635010 
z"/>
<path fill="#000000" opacity="1.000000" stroke="none" 
	d="
M313.187286,647.961975 
	C309.828064,645.215881 310.106445,643.200500 314.177032,642.772034 
	C317.793152,642.391296 321.478546,642.646301 325.133179,642.664124 
	C326.738342,642.671936 328.130737,643.021179 328.202759,645.073059 
	C328.265625,646.863159 327.472961,647.994080 325.692017,648.140747 
	C322.313507,648.418884 322.389709,650.732117 322.500885,653.186157 
	C322.643585,656.334778 322.797028,659.487732 322.771027,662.637451 
	C322.754486,664.645020 322.005646,666.257507 319.525085,666.078796 
	C317.379608,665.924316 316.788452,664.488342 316.766174,662.646545 
	C316.723969,659.157959 316.653748,655.667847 316.718323,652.180603 
	C316.760559,649.898743 316.222321,648.226379 313.187286,647.961975 
z"/>
<path fill="#000000" opacity="1.000000" stroke="none" 
	d="
M622.463257,659.183594 
	C623.754761,660.903442 625.365479,660.579285 626.810913,660.757935 
	C628.423889,660.957153 629.170349,661.842163 629.139526,663.413025 
	C629.108154,665.009155 628.166565,665.940247 626.671570,666.010742 
	C623.851440,666.143616 621.019165,666.171021 618.197693,666.075500 
	C615.999573,666.001160 615.541077,664.275146 615.540283,662.532227 
	C615.537781,657.042175 615.659546,651.552246 615.700500,646.062012 
	C615.716980,643.850586 616.599670,642.671692 618.981934,642.718750 
	C621.473755,642.768066 622.018738,644.282898 622.056580,646.328979 
	C622.133423,650.485168 622.215942,654.641296 622.463257,659.183594 
z"/>
<path fill="#000000" opacity="1.000000" stroke="none" 
	d="
M289.163269,666.082458 
	C286.374878,665.661987 286.036804,663.877808 286.027069,661.977173 
	C286.000824,656.854797 286.018921,651.731934 286.063477,646.609619 
	C286.082306,644.442566 286.580505,642.679260 289.364410,642.715271 
	C292.330231,642.753662 292.283478,644.782410 292.299164,646.826477 
	C292.337250,651.783691 292.396118,656.741089 292.375885,661.698181 
	C292.367767,663.684937 292.441071,665.840332 289.163269,666.082458 
z"/>
<path fill="#000000" opacity="1.000000" stroke="none" 
	d="
M352.977539,665.991577 
	C350.008514,665.945740 349.652740,664.177612 349.642609,662.222900 
	C349.615906,657.063965 349.634094,651.904785 349.632141,646.745728 
	C349.631317,644.594543 349.885620,642.717224 352.757019,642.717041 
	C355.908447,642.716858 355.486816,644.858398 355.462372,646.880981 
	C355.404022,651.706482 355.442871,656.533447 355.349243,661.358032 
	C355.315613,663.091003 355.847595,665.171997 352.977539,665.991577 
z"/>
</svg>